<mxfile host="app.diagrams.net" modified="2023-08-21T08:07:16.576Z" agent="Mozilla/5.0 (Macintosh; Intel Mac OS X 10_15_7) AppleWebKit/537.36 (KHTML, like Gecko) Chrome/115.0.0.0 Safari/537.36" etag="gZQ6JiqZWJ1PEvgkMFKZ" version="21.6.8" type="github">
  <diagram name="第 1 页" id="mxg2_MV8SL3HYpg_Iof4">
    <mxGraphModel dx="954" dy="689" grid="1" gridSize="10" guides="1" tooltips="1" connect="1" arrows="1" fold="1" page="1" pageScale="1" pageWidth="827" pageHeight="1169" math="0" shadow="0">
      <root>
        <mxCell id="0" />
        <mxCell id="1" parent="0" />
        <mxCell id="vc-uLmDQuaaOf_mBzw23-6" style="edgeStyle=orthogonalEdgeStyle;rounded=0;orthogonalLoop=1;jettySize=auto;html=1;entryX=0;entryY=0.5;entryDx=0;entryDy=0;entryPerimeter=0;" parent="1" source="vc-uLmDQuaaOf_mBzw23-3" target="vc-uLmDQuaaOf_mBzw23-5" edge="1">
          <mxGeometry relative="1" as="geometry" />
        </mxCell>
        <mxCell id="vc-uLmDQuaaOf_mBzw23-3" value="填写手机号" style="strokeWidth=2;html=1;shape=mxgraph.flowchart.terminator;whiteSpace=wrap;" parent="1" vertex="1">
          <mxGeometry x="10" y="15" width="80" height="40" as="geometry" />
        </mxCell>
        <mxCell id="vc-uLmDQuaaOf_mBzw23-8" style="edgeStyle=orthogonalEdgeStyle;rounded=0;orthogonalLoop=1;jettySize=auto;html=1;entryX=0;entryY=0.5;entryDx=0;entryDy=0;entryPerimeter=0;" parent="1" source="vc-uLmDQuaaOf_mBzw23-5" target="vc-uLmDQuaaOf_mBzw23-7" edge="1">
          <mxGeometry relative="1" as="geometry" />
        </mxCell>
        <mxCell id="vc-uLmDQuaaOf_mBzw23-78" value="N" style="edgeLabel;html=1;align=center;verticalAlign=middle;resizable=0;points=[];" parent="vc-uLmDQuaaOf_mBzw23-8" vertex="1" connectable="0">
          <mxGeometry x="-0.0864" y="3" relative="1" as="geometry">
            <mxPoint y="3" as="offset" />
          </mxGeometry>
        </mxCell>
        <mxCell id="vc-uLmDQuaaOf_mBzw23-10" style="edgeStyle=orthogonalEdgeStyle;rounded=0;orthogonalLoop=1;jettySize=auto;html=1;" parent="1" source="vc-uLmDQuaaOf_mBzw23-5" target="vc-uLmDQuaaOf_mBzw23-9" edge="1">
          <mxGeometry relative="1" as="geometry" />
        </mxCell>
        <mxCell id="vc-uLmDQuaaOf_mBzw23-11" value="Y" style="edgeLabel;html=1;align=center;verticalAlign=middle;resizable=0;points=[];" parent="vc-uLmDQuaaOf_mBzw23-10" vertex="1" connectable="0">
          <mxGeometry x="-0.2938" relative="1" as="geometry">
            <mxPoint y="6" as="offset" />
          </mxGeometry>
        </mxCell>
        <mxCell id="vc-uLmDQuaaOf_mBzw23-5" value="巧房注册 ？" style="strokeWidth=2;html=1;shape=mxgraph.flowchart.decision;whiteSpace=wrap;" parent="1" vertex="1">
          <mxGeometry x="150" y="10" width="100" height="50" as="geometry" />
        </mxCell>
        <mxCell id="vc-uLmDQuaaOf_mBzw23-50" style="edgeStyle=orthogonalEdgeStyle;rounded=0;orthogonalLoop=1;jettySize=auto;html=1;entryX=0;entryY=0.5;entryDx=0;entryDy=0;entryPerimeter=0;" parent="1" source="vc-uLmDQuaaOf_mBzw23-7" target="vc-uLmDQuaaOf_mBzw23-34" edge="1">
          <mxGeometry relative="1" as="geometry" />
        </mxCell>
        <mxCell id="vc-uLmDQuaaOf_mBzw23-79" value="N" style="edgeLabel;html=1;align=center;verticalAlign=middle;resizable=0;points=[];" parent="vc-uLmDQuaaOf_mBzw23-50" vertex="1" connectable="0">
          <mxGeometry x="-0.1304" relative="1" as="geometry">
            <mxPoint as="offset" />
          </mxGeometry>
        </mxCell>
        <mxCell id="vc-uLmDQuaaOf_mBzw23-53" style="edgeStyle=orthogonalEdgeStyle;rounded=0;orthogonalLoop=1;jettySize=auto;html=1;" parent="1" source="vc-uLmDQuaaOf_mBzw23-7" target="vc-uLmDQuaaOf_mBzw23-42" edge="1">
          <mxGeometry relative="1" as="geometry" />
        </mxCell>
        <mxCell id="vc-uLmDQuaaOf_mBzw23-55" value="Y" style="edgeLabel;html=1;align=center;verticalAlign=middle;resizable=0;points=[];" parent="vc-uLmDQuaaOf_mBzw23-53" vertex="1" connectable="0">
          <mxGeometry x="0.4023" relative="1" as="geometry">
            <mxPoint as="offset" />
          </mxGeometry>
        </mxCell>
        <mxCell id="vc-uLmDQuaaOf_mBzw23-7" value="58 授权 ？" style="strokeWidth=2;html=1;shape=mxgraph.flowchart.decision;whiteSpace=wrap;" parent="1" vertex="1">
          <mxGeometry x="302" y="10" width="100" height="50" as="geometry" />
        </mxCell>
        <mxCell id="vc-uLmDQuaaOf_mBzw23-13" style="edgeStyle=orthogonalEdgeStyle;rounded=0;orthogonalLoop=1;jettySize=auto;html=1;entryX=0.5;entryY=0;entryDx=0;entryDy=0;entryPerimeter=0;" parent="1" source="vc-uLmDQuaaOf_mBzw23-9" target="vc-uLmDQuaaOf_mBzw23-12" edge="1">
          <mxGeometry relative="1" as="geometry" />
        </mxCell>
        <mxCell id="vc-uLmDQuaaOf_mBzw23-14" value="Y" style="edgeLabel;html=1;align=center;verticalAlign=middle;resizable=0;points=[];" parent="vc-uLmDQuaaOf_mBzw23-13" vertex="1" connectable="0">
          <mxGeometry x="-0.3167" y="1" relative="1" as="geometry">
            <mxPoint x="-1" y="7" as="offset" />
          </mxGeometry>
        </mxCell>
        <mxCell id="vc-uLmDQuaaOf_mBzw23-9" value="是否存在&lt;br style=&quot;font-size: 8px;&quot;&gt;对应三网公司 ？" style="strokeWidth=2;html=1;shape=mxgraph.flowchart.decision;whiteSpace=wrap;fontSize=8;" parent="1" vertex="1">
          <mxGeometry x="150" y="100" width="100" height="50" as="geometry" />
        </mxCell>
        <mxCell id="vc-uLmDQuaaOf_mBzw23-16" style="edgeStyle=orthogonalEdgeStyle;rounded=0;orthogonalLoop=1;jettySize=auto;html=1;entryX=0.5;entryY=0;entryDx=0;entryDy=0;entryPerimeter=0;" parent="1" source="vc-uLmDQuaaOf_mBzw23-12" target="vc-uLmDQuaaOf_mBzw23-15" edge="1">
          <mxGeometry relative="1" as="geometry" />
        </mxCell>
        <mxCell id="vc-uLmDQuaaOf_mBzw23-17" value="Y" style="edgeLabel;html=1;align=center;verticalAlign=middle;resizable=0;points=[];" parent="vc-uLmDQuaaOf_mBzw23-16" vertex="1" connectable="0">
          <mxGeometry x="-0.2611" y="1" relative="1" as="geometry">
            <mxPoint x="-1" y="5" as="offset" />
          </mxGeometry>
        </mxCell>
        <mxCell id="vc-uLmDQuaaOf_mBzw23-12" value="是否战投公司 ？" style="strokeWidth=2;html=1;shape=mxgraph.flowchart.decision;whiteSpace=wrap;fontSize=10;" parent="1" vertex="1">
          <mxGeometry x="150" y="190" width="100" height="50" as="geometry" />
        </mxCell>
        <mxCell id="vc-uLmDQuaaOf_mBzw23-19" style="edgeStyle=orthogonalEdgeStyle;rounded=0;orthogonalLoop=1;jettySize=auto;html=1;entryX=0.5;entryY=0;entryDx=0;entryDy=0;entryPerimeter=0;" parent="1" source="vc-uLmDQuaaOf_mBzw23-15" target="vc-uLmDQuaaOf_mBzw23-18" edge="1">
          <mxGeometry relative="1" as="geometry" />
        </mxCell>
        <mxCell id="vc-uLmDQuaaOf_mBzw23-20" value="Y" style="edgeLabel;html=1;align=center;verticalAlign=middle;resizable=0;points=[];" parent="vc-uLmDQuaaOf_mBzw23-19" vertex="1" connectable="0">
          <mxGeometry x="-0.15" relative="1" as="geometry">
            <mxPoint y="-9" as="offset" />
          </mxGeometry>
        </mxCell>
        <mxCell id="vc-uLmDQuaaOf_mBzw23-15" value="非黑名单 ？" style="strokeWidth=2;html=1;shape=mxgraph.flowchart.decision;whiteSpace=wrap;fontSize=10;" parent="1" vertex="1">
          <mxGeometry x="150" y="280" width="100" height="50" as="geometry" />
        </mxCell>
        <mxCell id="vc-uLmDQuaaOf_mBzw23-22" style="edgeStyle=orthogonalEdgeStyle;rounded=0;orthogonalLoop=1;jettySize=auto;html=1;" parent="1" source="vc-uLmDQuaaOf_mBzw23-18" target="vc-uLmDQuaaOf_mBzw23-21" edge="1">
          <mxGeometry relative="1" as="geometry" />
        </mxCell>
        <mxCell id="vc-uLmDQuaaOf_mBzw23-23" value="Y" style="edgeLabel;html=1;align=center;verticalAlign=middle;resizable=0;points=[];" parent="vc-uLmDQuaaOf_mBzw23-22" vertex="1" connectable="0">
          <mxGeometry x="-0.15" relative="1" as="geometry">
            <mxPoint y="-9" as="offset" />
          </mxGeometry>
        </mxCell>
        <mxCell id="vc-uLmDQuaaOf_mBzw23-18" value="非虚拟公司 ？" style="strokeWidth=2;html=1;shape=mxgraph.flowchart.decision;whiteSpace=wrap;fontSize=10;" parent="1" vertex="1">
          <mxGeometry x="150" y="360" width="100" height="50" as="geometry" />
        </mxCell>
        <mxCell id="vc-uLmDQuaaOf_mBzw23-25" style="edgeStyle=orthogonalEdgeStyle;rounded=0;orthogonalLoop=1;jettySize=auto;html=1;entryX=0.5;entryY=0;entryDx=0;entryDy=0;entryPerimeter=0;" parent="1" source="vc-uLmDQuaaOf_mBzw23-21" target="vc-uLmDQuaaOf_mBzw23-24" edge="1">
          <mxGeometry relative="1" as="geometry" />
        </mxCell>
        <mxCell id="vc-uLmDQuaaOf_mBzw23-26" value="Y" style="edgeLabel;html=1;align=center;verticalAlign=middle;resizable=0;points=[];" parent="vc-uLmDQuaaOf_mBzw23-25" vertex="1" connectable="0">
          <mxGeometry x="-0.3444" y="1" relative="1" as="geometry">
            <mxPoint x="-1" y="-6" as="offset" />
          </mxGeometry>
        </mxCell>
        <mxCell id="vc-uLmDQuaaOf_mBzw23-21" value="公司所属&lt;br style=&quot;font-size: 8px;&quot;&gt;城市是否一致 ？" style="strokeWidth=2;html=1;shape=mxgraph.flowchart.decision;whiteSpace=wrap;fontSize=8;" parent="1" vertex="1">
          <mxGeometry x="150" y="440" width="100" height="50" as="geometry" />
        </mxCell>
        <mxCell id="vc-uLmDQuaaOf_mBzw23-28" style="edgeStyle=orthogonalEdgeStyle;rounded=0;orthogonalLoop=1;jettySize=auto;html=1;" parent="1" source="vc-uLmDQuaaOf_mBzw23-24" target="vc-uLmDQuaaOf_mBzw23-27" edge="1">
          <mxGeometry relative="1" as="geometry" />
        </mxCell>
        <mxCell id="vc-uLmDQuaaOf_mBzw23-29" value="Y" style="edgeLabel;html=1;align=center;verticalAlign=middle;resizable=0;points=[];" parent="vc-uLmDQuaaOf_mBzw23-28" vertex="1" connectable="0">
          <mxGeometry x="-0.3444" relative="1" as="geometry">
            <mxPoint y="2" as="offset" />
          </mxGeometry>
        </mxCell>
        <mxCell id="vc-uLmDQuaaOf_mBzw23-24" value="门店所属&lt;br&gt;城市是否一致 ？" style="strokeWidth=2;html=1;shape=mxgraph.flowchart.decision;whiteSpace=wrap;fontSize=8;" parent="1" vertex="1">
          <mxGeometry x="150" y="520" width="100" height="50" as="geometry" />
        </mxCell>
        <mxCell id="vc-uLmDQuaaOf_mBzw23-31" value="Y" style="edgeStyle=orthogonalEdgeStyle;rounded=0;orthogonalLoop=1;jettySize=auto;html=1;entryX=0.5;entryY=0;entryDx=0;entryDy=0;" parent="1" source="vc-uLmDQuaaOf_mBzw23-27" target="vc-uLmDQuaaOf_mBzw23-30" edge="1">
          <mxGeometry relative="1" as="geometry">
            <mxPoint as="offset" />
          </mxGeometry>
        </mxCell>
        <mxCell id="vc-uLmDQuaaOf_mBzw23-43" style="edgeStyle=orthogonalEdgeStyle;rounded=0;orthogonalLoop=1;jettySize=auto;html=1;" parent="1" source="vc-uLmDQuaaOf_mBzw23-27" target="vc-uLmDQuaaOf_mBzw23-42" edge="1">
          <mxGeometry relative="1" as="geometry" />
        </mxCell>
        <mxCell id="vc-uLmDQuaaOf_mBzw23-44" value="N" style="edgeLabel;html=1;align=center;verticalAlign=middle;resizable=0;points=[];" parent="vc-uLmDQuaaOf_mBzw23-43" vertex="1" connectable="0">
          <mxGeometry x="-0.0808" y="1" relative="1" as="geometry">
            <mxPoint as="offset" />
          </mxGeometry>
        </mxCell>
        <mxCell id="vc-uLmDQuaaOf_mBzw23-27" value="云账号注册 ？" style="strokeWidth=2;html=1;shape=mxgraph.flowchart.decision;whiteSpace=wrap;fontSize=10;" parent="1" vertex="1">
          <mxGeometry x="150" y="610" width="100" height="50" as="geometry" />
        </mxCell>
        <mxCell id="vc-uLmDQuaaOf_mBzw23-33" style="edgeStyle=orthogonalEdgeStyle;rounded=0;orthogonalLoop=1;jettySize=auto;html=1;entryX=0.5;entryY=0;entryDx=0;entryDy=0;entryPerimeter=0;" parent="1" source="vc-uLmDQuaaOf_mBzw23-30" target="vc-uLmDQuaaOf_mBzw23-32" edge="1">
          <mxGeometry relative="1" as="geometry" />
        </mxCell>
        <mxCell id="vc-uLmDQuaaOf_mBzw23-30" value="全网通城市 &amp;amp; 没有58 账号, 自动注册并关联" style="rounded=0;whiteSpace=wrap;html=1;fontSize=10;" parent="1" vertex="1">
          <mxGeometry x="140" y="700" width="120" height="40" as="geometry" />
        </mxCell>
        <mxCell id="vc-uLmDQuaaOf_mBzw23-32" value="跳转&lt;br&gt;绑定结果页" style="strokeWidth=2;html=1;shape=mxgraph.flowchart.terminator;whiteSpace=wrap;" parent="1" vertex="1">
          <mxGeometry x="160" y="875" width="80" height="40" as="geometry" />
        </mxCell>
        <mxCell id="vc-uLmDQuaaOf_mBzw23-51" style="edgeStyle=orthogonalEdgeStyle;rounded=0;orthogonalLoop=1;jettySize=auto;html=1;entryX=0;entryY=0.5;entryDx=0;entryDy=0;" parent="1" source="vc-uLmDQuaaOf_mBzw23-34" target="vc-uLmDQuaaOf_mBzw23-37" edge="1">
          <mxGeometry relative="1" as="geometry" />
        </mxCell>
        <mxCell id="vc-uLmDQuaaOf_mBzw23-80" value="Y" style="edgeLabel;html=1;align=center;verticalAlign=middle;resizable=0;points=[];" parent="vc-uLmDQuaaOf_mBzw23-51" vertex="1" connectable="0">
          <mxGeometry x="-0.1467" relative="1" as="geometry">
            <mxPoint as="offset" />
          </mxGeometry>
        </mxCell>
        <mxCell id="vc-uLmDQuaaOf_mBzw23-54" style="edgeStyle=orthogonalEdgeStyle;rounded=0;orthogonalLoop=1;jettySize=auto;html=1;entryX=1;entryY=0.5;entryDx=0;entryDy=0;entryPerimeter=0;exitX=0.5;exitY=1;exitDx=0;exitDy=0;exitPerimeter=0;" parent="1" source="vc-uLmDQuaaOf_mBzw23-34" target="vc-uLmDQuaaOf_mBzw23-42" edge="1">
          <mxGeometry relative="1" as="geometry">
            <Array as="points">
              <mxPoint x="500" y="635" />
            </Array>
          </mxGeometry>
        </mxCell>
        <mxCell id="vc-uLmDQuaaOf_mBzw23-56" value="N" style="edgeLabel;html=1;align=center;verticalAlign=middle;resizable=0;points=[];" parent="vc-uLmDQuaaOf_mBzw23-54" vertex="1" connectable="0">
          <mxGeometry x="-0.1894" relative="1" as="geometry">
            <mxPoint as="offset" />
          </mxGeometry>
        </mxCell>
        <mxCell id="vc-uLmDQuaaOf_mBzw23-34" value="云账号注册 ？" style="strokeWidth=2;html=1;shape=mxgraph.flowchart.decision;whiteSpace=wrap;fontSize=12;" parent="1" vertex="1">
          <mxGeometry x="450" y="10" width="100" height="50" as="geometry" />
        </mxCell>
        <mxCell id="vc-uLmDQuaaOf_mBzw23-104" style="edgeStyle=orthogonalEdgeStyle;rounded=0;orthogonalLoop=1;jettySize=auto;html=1;entryX=0;entryY=0.5;entryDx=0;entryDy=0;entryPerimeter=0;" parent="1" source="vc-uLmDQuaaOf_mBzw23-37" target="vc-uLmDQuaaOf_mBzw23-103" edge="1">
          <mxGeometry relative="1" as="geometry" />
        </mxCell>
        <mxCell id="vc-uLmDQuaaOf_mBzw23-37" value="关联三网 id" style="rounded=0;whiteSpace=wrap;html=1;fontSize=12;" parent="1" vertex="1">
          <mxGeometry x="590" y="18.75" width="90" height="32.5" as="geometry" />
        </mxCell>
        <mxCell id="vc-uLmDQuaaOf_mBzw23-58" style="edgeStyle=orthogonalEdgeStyle;rounded=0;orthogonalLoop=1;jettySize=auto;html=1;entryX=0.5;entryY=0;entryDx=0;entryDy=0;entryPerimeter=0;" parent="1" source="vc-uLmDQuaaOf_mBzw23-42" target="vc-uLmDQuaaOf_mBzw23-57" edge="1">
          <mxGeometry relative="1" as="geometry" />
        </mxCell>
        <mxCell id="vc-uLmDQuaaOf_mBzw23-90" value="Y" style="edgeLabel;html=1;align=center;verticalAlign=middle;resizable=0;points=[];" parent="vc-uLmDQuaaOf_mBzw23-58" vertex="1" connectable="0">
          <mxGeometry x="-0.4343" y="-1" relative="1" as="geometry">
            <mxPoint as="offset" />
          </mxGeometry>
        </mxCell>
        <mxCell id="vc-uLmDQuaaOf_mBzw23-42" value="城市存在 ？" style="strokeWidth=2;html=1;shape=mxgraph.flowchart.decision;whiteSpace=wrap;fontSize=12;" parent="1" vertex="1">
          <mxGeometry x="302" y="610" width="100" height="50" as="geometry" />
        </mxCell>
        <mxCell id="vc-uLmDQuaaOf_mBzw23-71" value="Y" style="edgeStyle=orthogonalEdgeStyle;rounded=0;orthogonalLoop=1;jettySize=auto;html=1;" parent="1" source="vc-uLmDQuaaOf_mBzw23-57" target="vc-uLmDQuaaOf_mBzw23-70" edge="1">
          <mxGeometry x="-0.6" relative="1" as="geometry">
            <mxPoint as="offset" />
          </mxGeometry>
        </mxCell>
        <mxCell id="vc-uLmDQuaaOf_mBzw23-57" value="手机号 ok ?" style="strokeWidth=2;html=1;shape=mxgraph.flowchart.decision;whiteSpace=wrap;fontSize=12;" parent="1" vertex="1">
          <mxGeometry x="302" y="695" width="100" height="50" as="geometry" />
        </mxCell>
        <mxCell id="vc-uLmDQuaaOf_mBzw23-69" style="edgeStyle=orthogonalEdgeStyle;rounded=0;orthogonalLoop=1;jettySize=auto;html=1;entryX=1;entryY=0.5;entryDx=0;entryDy=0;entryPerimeter=0;" parent="1" source="vc-uLmDQuaaOf_mBzw23-68" target="vc-uLmDQuaaOf_mBzw23-57" edge="1">
          <mxGeometry relative="1" as="geometry" />
        </mxCell>
        <mxCell id="vc-uLmDQuaaOf_mBzw23-68" value="1、格式合法&lt;br style=&quot;border-color: var(--border-color); font-size: 10px;&quot;&gt;&lt;span style=&quot;font-size: 10px;&quot;&gt;2、未使用过&lt;/span&gt;&lt;br style=&quot;border-color: var(--border-color); font-size: 10px;&quot;&gt;&lt;span style=&quot;font-size: 10px;&quot;&gt;3、当日未达上限&lt;/span&gt;" style="shape=note;size=20;whiteSpace=wrap;html=1;fontSize=10;align=left;" parent="1" vertex="1">
          <mxGeometry x="440" y="690" width="80" height="60" as="geometry" />
        </mxCell>
        <mxCell id="vc-uLmDQuaaOf_mBzw23-73" style="edgeStyle=orthogonalEdgeStyle;rounded=0;orthogonalLoop=1;jettySize=auto;html=1;entryX=0.5;entryY=0;entryDx=0;entryDy=0;entryPerimeter=0;" parent="1" source="vc-uLmDQuaaOf_mBzw23-70" target="vc-uLmDQuaaOf_mBzw23-72" edge="1">
          <mxGeometry relative="1" as="geometry" />
        </mxCell>
        <mxCell id="vc-uLmDQuaaOf_mBzw23-74" value="Y" style="edgeLabel;html=1;align=center;verticalAlign=middle;resizable=0;points=[];" parent="vc-uLmDQuaaOf_mBzw23-73" vertex="1" connectable="0">
          <mxGeometry x="-0.3167" relative="1" as="geometry">
            <mxPoint y="6" as="offset" />
          </mxGeometry>
        </mxCell>
        <mxCell id="vc-uLmDQuaaOf_mBzw23-70" value="非弱密码 ？" style="strokeWidth=2;html=1;shape=mxgraph.flowchart.decision;whiteSpace=wrap;fontSize=12;" parent="1" vertex="1">
          <mxGeometry x="302" y="780" width="100" height="50" as="geometry" />
        </mxCell>
        <mxCell id="vc-uLmDQuaaOf_mBzw23-76" style="edgeStyle=orthogonalEdgeStyle;rounded=0;orthogonalLoop=1;jettySize=auto;html=1;entryX=0.5;entryY=0;entryDx=0;entryDy=0;" parent="1" source="vc-uLmDQuaaOf_mBzw23-72" target="vc-uLmDQuaaOf_mBzw23-75" edge="1">
          <mxGeometry relative="1" as="geometry" />
        </mxCell>
        <mxCell id="vc-uLmDQuaaOf_mBzw23-77" value="Y" style="edgeLabel;html=1;align=center;verticalAlign=middle;resizable=0;points=[];" parent="vc-uLmDQuaaOf_mBzw23-76" vertex="1" connectable="0">
          <mxGeometry x="-0.3833" relative="1" as="geometry">
            <mxPoint as="offset" />
          </mxGeometry>
        </mxCell>
        <mxCell id="vc-uLmDQuaaOf_mBzw23-72" value="验证码 ok ？" style="strokeWidth=2;html=1;shape=mxgraph.flowchart.decision;whiteSpace=wrap;fontSize=12;" parent="1" vertex="1">
          <mxGeometry x="304" y="870" width="96" height="50" as="geometry" />
        </mxCell>
        <mxCell id="vc-uLmDQuaaOf_mBzw23-82" style="edgeStyle=orthogonalEdgeStyle;rounded=0;orthogonalLoop=1;jettySize=auto;html=1;entryX=0.5;entryY=0;entryDx=0;entryDy=0;" parent="1" source="vc-uLmDQuaaOf_mBzw23-75" target="vc-uLmDQuaaOf_mBzw23-81" edge="1">
          <mxGeometry relative="1" as="geometry" />
        </mxCell>
        <mxCell id="vc-uLmDQuaaOf_mBzw23-75" value="调用注册接口" style="rounded=0;whiteSpace=wrap;html=1;fontSize=12;" parent="1" vertex="1">
          <mxGeometry x="294" y="960" width="116" height="32.5" as="geometry" />
        </mxCell>
        <mxCell id="vc-uLmDQuaaOf_mBzw23-84" style="edgeStyle=orthogonalEdgeStyle;rounded=0;orthogonalLoop=1;jettySize=auto;html=1;entryX=0.5;entryY=0;entryDx=0;entryDy=0;entryPerimeter=0;" parent="1" source="vc-uLmDQuaaOf_mBzw23-81" target="vc-uLmDQuaaOf_mBzw23-83" edge="1">
          <mxGeometry relative="1" as="geometry" />
        </mxCell>
        <mxCell id="vc-uLmDQuaaOf_mBzw23-81" value="关联三网id 或 &lt;br style=&quot;font-size: 11px;&quot;&gt;自动注册58账号" style="rounded=0;whiteSpace=wrap;html=1;fontSize=11;" parent="1" vertex="1">
          <mxGeometry x="294" y="1030" width="116" height="32.5" as="geometry" />
        </mxCell>
        <mxCell id="vc-uLmDQuaaOf_mBzw23-85" style="edgeStyle=orthogonalEdgeStyle;rounded=0;orthogonalLoop=1;jettySize=auto;html=1;entryX=0.5;entryY=1;entryDx=0;entryDy=0;entryPerimeter=0;" parent="1" source="vc-uLmDQuaaOf_mBzw23-83" target="vc-uLmDQuaaOf_mBzw23-32" edge="1">
          <mxGeometry relative="1" as="geometry" />
        </mxCell>
        <mxCell id="vc-uLmDQuaaOf_mBzw23-86" value="Y" style="edgeLabel;html=1;align=center;verticalAlign=middle;resizable=0;points=[];" parent="vc-uLmDQuaaOf_mBzw23-85" vertex="1" connectable="0">
          <mxGeometry x="-0.7504" y="-3" relative="1" as="geometry">
            <mxPoint as="offset" />
          </mxGeometry>
        </mxCell>
        <mxCell id="vc-uLmDQuaaOf_mBzw23-87" style="edgeStyle=orthogonalEdgeStyle;rounded=0;orthogonalLoop=1;jettySize=auto;html=1;entryX=0.5;entryY=1;entryDx=0;entryDy=0;entryPerimeter=0;" parent="1" source="vc-uLmDQuaaOf_mBzw23-83" target="vc-uLmDQuaaOf_mBzw23-103" edge="1">
          <mxGeometry relative="1" as="geometry">
            <mxPoint x="770" y="51.25" as="targetPoint" />
          </mxGeometry>
        </mxCell>
        <mxCell id="vc-uLmDQuaaOf_mBzw23-88" value="N" style="edgeLabel;html=1;align=center;verticalAlign=middle;resizable=0;points=[];" parent="vc-uLmDQuaaOf_mBzw23-87" vertex="1" connectable="0">
          <mxGeometry x="-0.7736" relative="1" as="geometry">
            <mxPoint as="offset" />
          </mxGeometry>
        </mxCell>
        <mxCell id="vc-uLmDQuaaOf_mBzw23-83" value="巧房来源 ？" style="strokeWidth=2;html=1;shape=mxgraph.flowchart.decision;whiteSpace=wrap;fontSize=12;" parent="1" vertex="1">
          <mxGeometry x="304" y="1100" width="96" height="50" as="geometry" />
        </mxCell>
        <mxCell id="vc-uLmDQuaaOf_mBzw23-103" value="跳转填写&lt;br&gt;个人信息" style="strokeWidth=2;html=1;shape=mxgraph.flowchart.terminator;whiteSpace=wrap;" parent="1" vertex="1">
          <mxGeometry x="730" y="15" width="80" height="40" as="geometry" />
        </mxCell>
      </root>
    </mxGraphModel>
  </diagram>
</mxfile>
